<?xml version="1.0" standalone="no"?>
<!DOCTYPE svg PUBLIC "-//W3C//DTD SVG 20010904//EN"
 "http://www.w3.org/TR/2001/REC-SVG-20010904/DTD/svg10.dtd">
<svg version="1.0" xmlns="http://www.w3.org/2000/svg"
 width="1280.000000pt" height="1202.000000pt" viewBox="0 0 1280.000000 1202.000000"
 preserveAspectRatio="xMidYMid meet">
<metadata>
Created by potrace 1.15, written by Peter Selinger 2001-2017
</metadata>
<g transform="translate(0.000000,1202.000000) scale(0.100000,-0.100000)"
fill="#42a96e" stroke="none">
<path d="M820 6887 l0 -4124 273 -215 c149 -118 661 -518 1136 -888 771 -600
867 -671 884 -661 10 7 16 8 13 3 -3 -6 22 -15 57 -21 55 -11 70 -10 125 7 34
11 78 32 97 46 18 14 36 26 40 26 3 0 33 22 66 50 33 27 63 50 67 50 4 0 22
13 39 29 18 16 47 39 65 52 18 13 67 51 108 84 41 33 91 71 110 84 19 13 40
29 45 36 6 6 37 31 70 55 33 24 79 60 102 80 22 19 62 51 88 70 67 50 104 79
169 130 78 61 159 124 253 194 43 33 83 65 88 71 6 7 37 32 71 57 33 25 69 52
80 61 58 49 238 187 243 187 3 0 24 17 46 37 22 19 66 56 98 81 31 25 57 48
57 52 0 3 16 25 36 49 20 23 48 74 63 114 l26 72 3 3850 c2 2531 -1 3876 -7
3926 -12 90 -39 168 -52 147 -5 -7 -9 62 -9 160 l0 172 -2275 0 -2275 0 0
-4123z m2410 3621 c0 -50 -50 -127 -100 -153 -36 -19 -161 -25 -134 -7 6 4 14
23 18 43 7 41 57 101 101 124 17 8 49 14 73 13 33 -1 42 -5 42 -20z"/>
<path d="M7130 6887 l0 -4123 203 -160 c111 -89 622 -488 1136 -889 833 -648
937 -726 954 -715 10 6 16 7 13 2 -3 -5 21 -15 55 -21 51 -10 69 -10 117 4 31
9 69 23 83 31 24 12 224 160 259 191 8 7 74 58 145 113 72 55 153 118 180 140
55 45 123 98 229 179 160 121 194 148 247 193 31 27 61 48 66 48 5 0 22 14 39
31 16 17 52 46 79 64 28 19 61 44 75 57 13 12 51 43 85 67 33 24 67 50 75 57
28 26 225 180 241 190 9 5 36 26 60 46 24 20 64 54 89 75 65 55 114 111 140
162 52 103 49 -86 50 4031 0 2431 -4 3857 -10 3895 -12 75 -40 141 -52 123 -4
-7 -8 65 -8 160 l0 172 -2275 0 -2275 0 0 -4123z m2400 3578 c-23 -68 -83
-120 -145 -126 -49 -4 -91 1 -79 9 6 4 14 25 18 47 13 67 107 141 172 133 19
-2 35 1 35 7 1 5 4 0 6 -13 2 -12 -1 -38 -7 -57z"/>
</g>
</svg>
