<?xml version="1.0" standalone="no"?>
<!DOCTYPE svg PUBLIC "-//W3C//DTD SVG 20010904//EN"
 "http://www.w3.org/TR/2001/REC-SVG-20010904/DTD/svg10.dtd">
<svg version="1.0" xmlns="http://www.w3.org/2000/svg"
 width="1280.000000pt" height="1209.000000pt" viewBox="0 0 1280.000000 1209.000000"
 preserveAspectRatio="xMidYMid meet">
<metadata>
Created by potrace 1.15, written by Peter Selinger 2001-2017
</metadata>
<g transform="translate(0.000000,1209.000000) scale(0.100000,-0.100000)"
fill="#0e649a" stroke="none">
<path d="M3450 8325 l0 -3065 -575 0 -575 0 -2 -203 -3 -202 -802 -3 c-442 -1
-803 -5 -803 -10 0 -4 90 -257 201 -563 l201 -556 -201 -555 c-111 -306 -201
-561 -201 -567 0 -8 317 -11 1145 -11 l1145 0 0 290 0 290 235 0 235 0 0
-1235 c0 -679 2 -1235 5 -1235 3 0 661 426 1463 947 801 521 1464 947 1472
947 8 0 671 -426 1473 -947 802 -521 1460 -947 1462 -947 3 0 5 556 5 1235 l0
1235 235 0 235 0 0 -290 0 -290 1155 0 c719 0 1155 4 1155 9 0 6 -90 259 -200
562 -110 304 -200 557 -200 562 0 6 90 258 200 562 110 304 200 556 200 559 0
3 -366 7 -812 8 l-813 3 -2 200 -2 200 -575 3 -576 2 0 3065 0 3065 -2940 0
-2940 0 0 -3065z"/>
</g>
</svg>
